<svg xmlns="http://www.w3.org/2000/svg" aria-hidden="true" style="position:absolute;width:0;height:0;overflow:hidden">
    <defs>
        <symbol id="trash" viewBox="0 0 32 32">
            <path stroke-linejoin="round" stroke-linecap="round" stroke-miterlimit="4" stroke-width="3" d="M12 4h8">
            </path>
            <path stroke-linejoin="round" stroke-linecap="round" stroke-miterlimit="4" stroke-width="3.6"
                d="M4 8h24M25.333 8l-0.935 14.026c-0.14 2.104-0.21 3.156-0.665 3.954-0.4 0.702-1.004 1.267-1.731 1.62-0.826 0.4-1.881 0.4-3.99 0.4h-4.025c-2.109 0-3.163 0-3.99-0.4-0.727-0.353-1.331-0.917-1.731-1.62-0.455-0.798-0.525-1.85-0.665-3.954l-0.935-14.026">
            </path>
        </symbol>
        <symbol id="trash2" viewBox="0 0 32 32">
            <path
                d="M11.704 2.564c-1.13 0.226-1.555 1.658-0.736 2.477 0.128 0.124 0.275 0.229 0.436 0.311l0.010 0.005c0.245 0.112 0.274 0.114 4.594 0.114 4.315 0 4.35-0.002 4.59-0.114 0.517-0.236 0.869-0.748 0.869-1.342 0-0.004-0-0.008-0-0.013v0.001c0-0.007 0-0.015 0-0.023 0-0.59-0.351-1.098-0.855-1.327l-0.009-0.004c-0.242-0.112-0.286-0.114-4.462-0.121-2.317-0.005-4.315 0.011-4.436 0.037zM3.7 6.566c-1.13 0.224-1.555 1.658-0.736 2.477 0.35 0.352 0.579 0.418 1.502 0.446l0.81 0.023 0.032 0.327c0.016 0.181 0.222 3.231 0.457 6.783 0.457 6.929 0.494 7.416 0.615 8.191 0.286 1.855 1.29 3.272 2.877 4.059 0.576 0.286 1.1 0.439 1.864 0.542 0.691 0.096 9.083 0.096 9.774 0 0.764-0.103 1.288-0.256 1.864-0.542 1.331-0.663 2.319-1.846 2.708-3.275l0.008-0.036c0.249-0.97 0.242-0.871 0.775-8.939 0.236-3.551 0.441-6.602 0.457-6.783l0.032-0.327 0.81-0.023c0.924-0.027 1.141-0.091 1.498-0.45 0.261-0.247 0.424-0.597 0.424-0.984 0-0.017-0-0.035-0.001-0.052l0 0.002c0-0.007 0-0.015 0-0.023 0-0.59-0.351-1.098-0.855-1.327l-0.009-0.004-0.245-0.114-12.221-0.007c-6.719-0.005-12.319 0.011-12.44 0.037zM23.744 9.653c0 0.201-0.835 12.735-0.908 13.611-0.142 1.738-0.384 2.312-1.194 2.849-0.59 0.391-0.412 0.38-5.635 0.38-5.219 0-5.045 0.011-5.63-0.375-0.732-0.487-1.006-1.024-1.143-2.243-0.047 0.413-0.391-4.512-0.713-9.442l-0.25-4.78v-0.155h15.473v0.155z">
            </path>
        </symbol>
        <symbol id="upload" viewBox="0 0 32 32">
            <path stroke-linejoin="round" stroke-linecap="round" stroke-miterlimit="4" stroke-width="2.88"
                d="M28 20v5.333c0 0.707-0.281 1.386-0.781 1.886s-1.178 0.781-1.886 0.781h-18.667c-0.707 0-1.386-0.281-1.886-0.781s-0.781-1.178-0.781-1.886v-5.333">
            </path>
            <path stroke-linejoin="round" stroke-linecap="round" stroke-miterlimit="4" stroke-width="2.88"
                d="M22.666 10.667l-6.667-6.667-6.667 6.667"></path>
            <path stroke-linejoin="round" stroke-linecap="round" stroke-miterlimit="4" stroke-width="2.88" d="M16 4v16">
            </path>
        </symbol>
        <symbol id="edit" viewBox="0 0 32 32">
            <path stroke-linejoin="round" stroke-linecap="round" stroke-miterlimit="4" stroke-width="3.6"
                d="M22.666 4c0.35-0.35 0.766-0.628 1.223-0.817s0.948-0.287 1.443-0.287c0.495 0 0.986 0.098 1.443 0.287s0.873 0.467 1.224 0.817 0.628 0.766 0.817 1.223c0.19 0.458 0.287 0.948 0.287 1.443s-0.098 0.986-0.287 1.443c-0.189 0.458-0.467 0.873-0.817 1.223l-18 18-7.333 2 2-7.333 18-18z">
            </path>
        </symbol>
        <symbol id="eye" viewBox="0 0 32 32">
            <path stroke-linejoin="round" stroke-linecap="round" stroke-miterlimit="4" stroke-width="2.88"
                d="M1.333 16c0 0 5.333-10.667 14.667-10.667s14.667 10.667 14.667 10.667c0 0-5.333 10.667-14.667 10.667s-14.667-10.667-14.667-10.667z">
            </path>
            <path stroke-linejoin="round" stroke-linecap="round" stroke-miterlimit="4" stroke-width="2.88"
                d="M16 20c2.209 0 4-1.791 4-4s-1.791-4-4-4c-2.209 0-4 1.791-4 4s1.791 4 4 4z"></path>
        </symbol>
        <symbol id="eye_off" viewBox="0 0 32 32">
            <path stroke-linejoin="round" stroke-linecap="round" stroke-miterlimit="4" stroke-width="2.88"
                d="M23.92 23.92c-2.279 1.737-5.055 2.7-7.92 2.747-9.333 0-14.667-10.667-14.667-10.667 1.659-3.091 3.959-5.791 6.747-7.92M13.2 5.653c0.918-0.215 1.857-0.322 2.8-0.32 9.333 0 14.667 10.667 14.667 10.667-0.809 1.514-1.775 2.94-2.88 4.253M18.826 18.827c-0.366 0.393-0.808 0.708-1.298 0.927s-1.020 0.336-1.557 0.346-1.071-0.089-1.569-0.291c-0.498-0.201-0.951-0.5-1.33-0.88s-0.679-0.832-0.88-1.33c-0.201-0.498-0.3-1.032-0.29-1.569s0.127-1.067 0.346-1.557 0.534-0.932 0.927-1.298">
            </path>
            <path stroke-linejoin="round" stroke-linecap="round" stroke-miterlimit="4" stroke-width="2.88"
                d="M1.333 1.333l29.333 29.333"></path>
        </symbol>
        <symbol id="log_out" viewBox="0 0 32 32">
            <path stroke-linejoin="round" stroke-linecap="round" stroke-miterlimit="4" stroke-width="3"
                d="M12 28h-5.333c-0.707 0-1.386-0.281-1.886-0.781s-0.781-1.178-0.781-1.886v-18.667c0-0.707 0.281-1.386 0.781-1.886s1.178-0.781 1.886-0.781h5.333">
            </path>
            <path stroke-linejoin="round" stroke-linecap="round" stroke-miterlimit="4" stroke-width="3"
                d="M21.334 22.667l6.667-6.667-6.667-6.667"></path>
            <path stroke-linejoin="round" stroke-linecap="round" stroke-miterlimit="4" stroke-width="3" d="M28 16h-16">
            </path>
        </symbol>
        <symbol id="pie_chart" viewBox="0 0 32 32">
            <path fill="none" stroke="#323f47" stroke-linecap="round" stroke-linejoin="round" stroke-width="2.667"
                d="M22.933 18.667c.369 0 .554 0 .704.082a.713.713 0 0 1 .293.324c.067.157.05.324.016.659a10.665 10.665 0 0 1-12.694 9.397c-2.069-.412-3.97-1.428-5.462-2.919s-2.508-3.392-2.919-5.461a10.666 10.666 0 0 1 9.397-12.694c.334-.034.502-.05.659.016.13.055.257.17.324.293.082.15.082.334.082.704v8.533c0 .373 0 .56.073.703a.67.67 0 0 0 .291.291c.143.073.329.073.703.073h8.533z"
                style="stroke:var(--color1, #323f47)" />
            <path fill="none" stroke="#9be1a0" stroke-linecap="round" stroke-linejoin="round" stroke-width="2.667"
                d="M18.667 3.733c0-.369 0-.554.082-.704a.713.713 0 0 1 .324-.293c.157-.067.324-.05.659-.016a10.67 10.67 0 0 1 9.549 9.549c.033.334.05.502-.016.659a.704.704 0 0 1-.293.324c-.15.082-.334.082-.704.082h-8.533c-.373 0-.56 0-.703-.073a.67.67 0 0 1-.291-.291c-.073-.143-.073-.329-.073-.703V3.734z"
                style="stroke:var(--color2, #9be1a0)" />
        </symbol>
        <symbol id="settings" viewBox="0 0 32 32">
            <path stroke-linejoin="round" stroke-linecap="round" stroke-miterlimit="4" stroke-width="3"
                d="M16 20c2.209 0 4-1.791 4-4s-1.791-4-4-4c-2.209 0-4 1.791-4 4s1.791 4 4 4z"></path>
            <path stroke-linejoin="round" stroke-linecap="round" stroke-miterlimit="4" stroke-width="3"
                d="M25.867 20c-0.178 0.402-0.231 0.848-0.152 1.281s0.285 0.832 0.592 1.146l0.080 0.080c0.248 0.248 0.445 0.542 0.579 0.865s0.203 0.671 0.203 1.021c0 0.35-0.069 0.697-0.203 1.021s-0.331 0.618-0.579 0.865c-0.248 0.248-0.542 0.445-0.866 0.579s-0.671 0.203-1.021 0.203c-0.35 0-0.697-0.069-1.021-0.203s-0.618-0.331-0.865-0.579l-0.080-0.080c-0.314-0.307-0.713-0.514-1.146-0.592s-0.879-0.025-1.281 0.152c-0.394 0.169-0.731 0.45-0.968 0.807s-0.364 0.777-0.366 1.206v0.227c0 0.707-0.281 1.386-0.781 1.886s-1.178 0.781-1.886 0.781-1.386-0.281-1.886-0.781c-0.5-0.5-0.781-1.178-0.781-1.886v-0.12c-0.010-0.441-0.153-0.869-0.41-1.228s-0.616-0.633-1.030-0.785c-0.402-0.178-0.848-0.231-1.281-0.152s-0.832 0.285-1.146 0.592l-0.080 0.080c-0.248 0.248-0.542 0.445-0.865 0.579s-0.671 0.203-1.021 0.203c-0.35 0-0.697-0.069-1.021-0.203s-0.618-0.331-0.865-0.579c-0.248-0.248-0.445-0.542-0.579-0.866s-0.203-0.671-0.203-1.021c0-0.35 0.069-0.697 0.203-1.021s0.331-0.618 0.579-0.865l0.080-0.080c0.307-0.314 0.514-0.713 0.592-1.146s0.025-0.879-0.152-1.281c-0.169-0.394-0.45-0.731-0.807-0.968s-0.777-0.364-1.206-0.366h-0.227c-0.707 0-1.386-0.281-1.886-0.781s-0.781-1.178-0.781-1.886c0-0.707 0.281-1.386 0.781-1.886s1.178-0.781 1.886-0.781h0.12c0.441-0.010 0.869-0.153 1.228-0.41s0.633-0.616 0.785-1.030c0.178-0.402 0.23-0.848 0.152-1.281s-0.285-0.832-0.592-1.146l-0.080-0.080c-0.248-0.248-0.445-0.542-0.579-0.866s-0.203-0.671-0.203-1.021c0-0.35 0.069-0.697 0.203-1.021s0.331-0.618 0.579-0.865c0.248-0.248 0.542-0.445 0.865-0.579s0.671-0.203 1.021-0.203c0.35 0 0.697 0.069 1.021 0.203s0.618 0.331 0.866 0.579l0.080 0.080c0.314 0.307 0.713 0.514 1.146 0.592s0.879 0.025 1.281-0.152h0.107c0.394-0.169 0.731-0.45 0.968-0.807s0.364-0.777 0.366-1.206v-0.227c0-0.707 0.281-1.386 0.781-1.886s1.178-0.781 1.886-0.781c0.707 0 1.386 0.281 1.886 0.781s0.781 1.178 0.781 1.886v0.12c0.002 0.429 0.129 0.848 0.366 1.206s0.573 0.638 0.968 0.807c0.402 0.177 0.848 0.23 1.281 0.152s0.832-0.285 1.146-0.592l0.080-0.080c0.248-0.248 0.542-0.445 0.865-0.579s0.671-0.203 1.021-0.203c0.35 0 0.697 0.069 1.021 0.203s0.618 0.331 0.865 0.579c0.248 0.248 0.445 0.542 0.579 0.865s0.203 0.671 0.203 1.021c0 0.35-0.069 0.697-0.203 1.021s-0.331 0.618-0.579 0.865l-0.080 0.080c-0.307 0.314-0.514 0.713-0.592 1.146s-0.025 0.879 0.152 1.281v0.107c0.169 0.394 0.45 0.731 0.807 0.968s0.777 0.364 1.206 0.366h0.227c0.707 0 1.386 0.281 1.886 0.781s0.781 1.178 0.781 1.886-0.281 1.386-0.781 1.886c-0.5 0.5-1.178 0.781-1.886 0.781h-0.12c-0.429 0.002-0.848 0.129-1.206 0.366s-0.638 0.573-0.807 0.968z">
            </path>
        </symbol>
        <symbol id="close" viewBox="0 0 32 32">
            <path stroke-linejoin="round" stroke-linecap="round" stroke-miterlimit="4" stroke-width="3.4286"
                d="M24 8l-16 16"></path>
            <path stroke-linejoin="round" stroke-linecap="round" stroke-miterlimit="4" stroke-width="3.4286"
                d="M8 8l16 16"></path>
        </symbol>
        <symbol id="plus" viewBox="0 0 32 32">
            <path fill="none" stroke-linejoin="round" stroke-linecap="round" stroke-miterlimit="4" stroke-width="2.6667"
                d="M16 6.667v18.667"></path>
            <path fill="none" stroke-linejoin="round" stroke-linecap="round" stroke-miterlimit="4" stroke-width="2.6667"
                d="M6.667 16h18.667"></path>
        </symbol>
        <symbol id="edit-2" viewBox="0 0 32 32">
            <path fill="none" stroke="#323f47" style="stroke: var(--color5, #323f47)" stroke-linejoin="round"
                stroke-linecap="round" stroke-miterlimit="4" stroke-width="2.9714"
                d="M22.666 4c0.35-0.35 0.766-0.628 1.224-0.817s0.948-0.287 1.443-0.287c0.495 0 0.986 0.098 1.443 0.287s0.873 0.467 1.223 0.817 0.628 0.766 0.818 1.223c0.189 0.458 0.287 0.948 0.287 1.443s-0.098 0.986-0.287 1.443c-0.189 0.458-0.467 0.873-0.818 1.223l-18 18-7.333 2 2-7.333 18-18z">
            </path>
        </symbol>
        <symbol id="minus" viewBox="0 0 32 32">
            <path stroke-linejoin="miter" stroke-linecap="butt" stroke-miterlimit="4" stroke-width="1.1163"
                d="M16 0.558c8.528 0 15.442 6.914 15.442 15.442s-6.914 15.442-15.442 15.442c-8.528 0-15.442-6.914-15.442-15.442s6.914-15.442 15.442-15.442z">
            </path>
            <path stroke-linejoin="round" stroke-linecap="round" stroke-miterlimit="4" stroke-width="1.3395"
                d="M10.286 16h11.429"></path>
        </symbol>
        <symbol id="plus-2" viewBox="0 0 32 32">
            <path stroke-linejoin="miter" stroke-linecap="butt" stroke-miterlimit="4" stroke-width="1.2"
                d="M16 0.6c8.505 0 15.4 6.895 15.4 15.4s-6.895 15.4-15.4 15.4c-8.505 0-15.4-6.895-15.4-15.4s6.895-15.4 15.4-15.4z">
            </path>
            <path stroke-linejoin="round" stroke-linecap="round" stroke-miterlimit="4" stroke-width="1.44"
                d="M16 10.286v11.429"></path>
            <path stroke-linejoin="round" stroke-linecap="round" stroke-miterlimit="4" stroke-width="1.44"
                d="M10.286 16h11.429"></path>
        </symbol>
        <symbol id="glass" viewBox="0 0 32 32">
            <path fill="#9be1a0" style="fill: var(--color1, #9be1a0)"
                d="M27.568 5.226c-0.097-0.321-0.26-0.616-0.479-0.868s-0.488-0.452-0.79-0.589c-0.3-0.142-0.627-0.214-0.958-0.21h-18.63c-0.331-0.019-0.661 0.049-0.958 0.197-0.308 0.139-0.582 0.345-0.803 0.604-0.219 0.251-0.382 0.546-0.479 0.866-0.1 0.318-0.131 0.654-0.091 0.984l2.123 18.377c0.142 1.258 0.738 2.415 1.67 3.255 0.911 0.839 2.096 1.307 3.327 1.313h9.062c1.235-0.005 2.424-0.473 3.34-1.313 0.92-0.848 1.508-2.004 1.657-3.255l1.152-10.331v-0.157l0.893-7.876c0.050-0.332 0.037-0.671-0.039-0.998zM14.492 25.375h-1.295c-0.839-0.047-1.637-0.38-2.266-0.945-0.626-0.572-1.038-1.347-1.165-2.192l-0.311-2.258c-0.040-0.344 0.055-0.69 0.264-0.965s0.515-0.455 0.854-0.503c0.338-0.048 0.682 0.040 0.957 0.246s0.46 0.512 0.515 0.854l0.311 2.232c0.035 0.244 0.154 0.467 0.337 0.63 0.181 0.168 0.415 0.266 0.66 0.276h1.295c0.343 0 0.673 0.138 0.915 0.384s0.379 0.58 0.379 0.928-0.136 0.682-0.379 0.928c-0.243 0.246-0.572 0.384-0.915 0.384h-0.155zM24.849 13.259c-2.732 0.538-5.062 0.643-7.535-1.313-3.068-2.455-6.784-1.667-10.357-0.381l-0.647-5.566c-0.013-0.056-0.013-0.114 0-0.171 0.018-0.055 0.049-0.105 0.091-0.144 0.031-0.048 0.076-0.085 0.129-0.105 0.051-0.015 0.105-0.015 0.155 0h18.798c0.049 0.028 0.092 0.063 0.13 0.105 0.039 0.039 0.065 0.091 0.078 0.144 0.020 0.060 0.020 0.124 0 0.184l-0.842 7.246z">
            </path>
        </symbol>
        <symbol id="Layer_1" style="enable-background:new 0 0 30 30;" version="1.1" viewBox="0 0 30 30"
            xml:space="preserve" xmlns="http://www.w3.org/2000/svg" xmlns:xlink="http://www.w3.org/1999/xlink">
            <path
                d="M15,3C8.373,3,3,8.373,3,15c0,6.627,5.373,12,12,12s12-5.373,12-12C27,8.373,21.627,3,15,3z M16.212,8l-0.2,9h-2.024l-0.2-9  H16.212z M15.003,22.189c-0.828,0-1.323-0.441-1.323-1.182c0-0.755,0.494-1.196,1.323-1.196c0.822,0,1.316,0.441,1.316,1.196  C16.319,21.748,15.825,22.189,15.003,22.189z" />
        </symbol>


        <symbol id="attention" xmlns="http://www.w3.org/2000/svg" xmlns:xlink="http://www.w3.org/1999/xlink"
            viewBox="0 0 3750 3750">

            <path fill-rule="nonzero" fill="#9be1a0" fill-opacity="1"
                d="M 1875 585.78125 C 1766.578125 585.78125 1662.609375 628.851562 1585.941406 705.519531 C 1509.28125 782.179688 1466.210938 886.160156 1466.210938 994.570312 C 1466.359375 1041.140625 1474.449219 1087.328125 1490.160156 1131.171875 L 1706.378906 2364.300781 C 1706.378906 2457.429688 1781.871094 2532.921875 1875 2532.921875 C 1968.128906 2532.921875 2043.628906 2457.429688 2043.628906 2364.300781 L 2259.910156 1130.789062 C 2275.550781 1087.070312 2283.628906 1041 2283.789062 994.570312 C 2283.789062 886.160156 2240.71875 782.179688 2164.058594 705.519531 C 2087.390625 628.851562 1983.421875 585.78125 1875 585.78125 Z M 1875 2669.648438 C 1809.410156 2669.648438 1746.519531 2695.699219 1700.140625 2742.070312 C 1653.769531 2788.449219 1627.710938 2851.347656 1627.710938 2916.933594 C 1627.710938 3053.503906 1738.429688 3164.214844 1875 3164.214844 C 2011.570312 3164.214844 2122.289062 3053.503906 2122.289062 2916.933594 C 2122.289062 2851.347656 2096.230469 2788.449219 2049.859375 2742.070312 C 2003.480469 2695.699219 1940.589844 2669.648438 1875 2669.648438 Z M 1875 2669.648438 " />
        </symbol>

<path fill-rule="nonzero" fill="#9be1a0" fill-opacity="1" d="M 1875 585.78125 C 1766.578125 585.78125 1662.609375 628.851562 1585.941406 705.519531 C 1509.28125 782.179688 1466.210938 886.160156 1466.210938 994.570312 C 1466.359375 1041.140625 1474.449219 1087.328125 1490.160156 1131.171875 L 1706.378906 2364.300781 C 1706.378906 2457.429688 1781.871094 2532.921875 1875 2532.921875 C 1968.128906 2532.921875 2043.628906 2457.429688 2043.628906 2364.300781 L 2259.910156 1130.789062 C 2275.550781 1087.070312 2283.628906 1041 2283.789062 994.570312 C 2283.789062 886.160156 2240.71875 782.179688 2164.058594 705.519531 C 2087.390625 628.851562 1983.421875 585.78125 1875 585.78125 Z M 1875 2669.648438 C 1809.410156 2669.648438 1746.519531 2695.699219 1700.140625 2742.070312 C 1653.769531 2788.449219 1627.710938 2851.347656 1627.710938 2916.933594 C 1627.710938 3053.503906 1738.429688 3164.214844 1875 3164.214844 C 2011.570312 3164.214844 2122.289062 3053.503906 2122.289062 2916.933594 C 2122.289062 2851.347656 2096.230469 2788.449219 2049.859375 2742.070312 C 2003.480469 2695.699219 1940.589844 2669.648438 1875 2669.648438 Z M 1875 2669.648438 "/>

<symbol id="eye-password-open" width="30px" height="30px" viewBox="0 0 24 24" fill="none">
<path d="M1 12C1 12 5 4 12 4C19 4 23 12 23 12" stroke="#000000" stroke-width="2" stroke-linecap="round" stroke-linejoin="round"/>
<path d="M1 12C1 12 5 20 12 20C19 20 23 12 23 12" stroke="#000000" stroke-width="2" stroke-linecap="round" stroke-linejoin="round"/>
<circle cx="12" cy="12" r="3" stroke="#000000" stroke-width="2" stroke-linecap="round" stroke-linejoin="round"/>
</symbol>
<!-- Uploaded to: SVG Repo, www.svgrepo.com, Generator: SVG Repo Mixer Tools -->
<symbol id="eye-password-close" width="30px" height="30px" viewBox="0 0 28 28" fill="none"><path clip-rule="evenodd" d="M22.6928 1.55018C22.3102 1.32626 21.8209 1.45915 21.6 1.84698L19.1533 6.14375C17.4864 5.36351 15.7609 4.96457 14.0142 4.96457C9.32104 4.96457 4.781 7.84644 1.11993 13.2641L1.10541 13.2854L1.09271 13.3038C0.970762 13.4784 0.967649 13.6837 1.0921 13.8563C3.79364 17.8691 6.97705 20.4972 10.3484 21.6018L8.39935 25.0222C8.1784 25.4101 8.30951 25.906 8.69214 26.1299L9.03857 26.3326C9.4212 26.5565 9.91046 26.4237 10.1314 26.0358L23.332 2.86058C23.553 2.47275 23.4219 1.97684 23.0392 1.75291L22.6928 1.55018ZM18.092 8.00705C16.7353 7.40974 15.3654 7.1186 14.0142 7.1186C10.6042 7.1186 7.07416 8.97311 3.93908 12.9239C3.63812 13.3032 3.63812 13.8561 3.93908 14.2354C6.28912 17.197 8.86102 18.9811 11.438 19.689L12.7855 17.3232C11.2462 16.8322 9.97333 15.4627 9.97333 13.5818C9.97333 11.2026 11.7969 9.27368 14.046 9.27368C15.0842 9.27368 16.0317 9.68468 16.7511 10.3612L18.092 8.00705ZM15.639 12.3137C15.2926 11.7767 14.7231 11.4277 14.046 11.4277C12.9205 11.4277 12 12.3906 12 13.5802C12 14.3664 12.8432 15.2851 13.9024 15.3624L15.639 12.3137Z" fill="#000000" fill-rule="evenodd"/><path d="M14.6873 22.1761C19.1311 21.9148 23.4056 19.0687 26.8864 13.931C26.9593 13.8234 27 13.7121 27 13.5797C27 13.4535 26.965 13.3481 26.8956 13.2455C25.5579 11.2677 24.1025 9.62885 22.5652 8.34557L21.506 10.2052C22.3887 10.9653 23.2531 11.87 24.0894 12.9239C24.3904 13.3032 24.3904 13.8561 24.0894 14.2354C21.5676 17.4135 18.7903 19.2357 16.0254 19.827L14.6873 22.1761Z" fill="#000000"/></symbol>
        <symbol id="google" viewBox="0 0 32 32">
            <path fill="#4285f4" style="fill: var(--color1, #4285f4)"
                d="M31.619 16.299c0-1.311-0.106-2.268-0.337-3.26h-14.971v5.917h8.787c-0.177 1.471-1.134 3.685-3.26 5.173l-0.030 0.198 4.733 3.667 0.328 0.033c3.012-2.782 4.748-6.874 4.748-11.729z">
            </path>
            <path fill="#34a853" style="fill: var(--color2, #34a853)"
                d="M16.311 31.89c4.305 0 7.919-1.417 10.559-3.862l-5.032-3.898c-1.346 0.939-3.154 1.595-5.528 1.595-4.217 0-7.795-2.781-9.071-6.626l-0.187 0.016-4.922 3.809-0.064 0.179c2.622 5.209 8.008 8.788 14.244 8.788z">
            </path>
            <path fill="#fbbc05" style="fill: var(--color3, #fbbc05)"
                d="M7.24 19.099c-0.337-0.992-0.531-2.055-0.531-3.154s0.195-2.161 0.514-3.154l-0.009-0.211-4.984-3.87-0.163 0.078c-1.081 2.161-1.701 4.589-1.701 7.158s0.62 4.996 1.701 7.157l5.173-4.004z">
            </path>
            <path fill="#eb4335" style="fill: var(--color4, #eb4335)"
                d="M16.311 6.165c2.994 0 5.014 1.293 6.165 2.374l4.5-4.394c-2.764-2.569-6.36-4.146-10.665-4.146-6.236 0-11.622 3.579-14.244 8.787l5.156 4.004c1.293-3.845 4.872-6.626 9.089-6.626z">
            </path>
        </symbol>
    </defs>
</svg>