<svg xmlns="http://www.w3.org/2000/svg" aria-hidden="true" style="position:absolute;width:0;height:0;overflow:hidden">
    <defs>
        <symbol id="trash" viewBox="0 0 32 32">
            <path stroke-linecap="round" stroke-linejoin="round" stroke-width="3" d="M12 4h8" />
            <path stroke-linecap="round" stroke-linejoin="round" stroke-width="3.6"
                d="M4 8h24m-2.667 0-.935 14.026c-.14 2.104-.21 3.156-.665 3.954a4.007 4.007 0 0 1-1.731 1.62c-.826.4-1.881.4-3.99.4h-4.025c-2.109 0-3.163 0-3.99-.4a4.001 4.001 0 0 1-1.731-1.62c-.455-.798-.525-1.85-.665-3.954L6.666 8" />
        </symbol>
        <symbol id="upload" viewBox="0 0 32 32">
            <path stroke-linecap="round" stroke-linejoin="round" stroke-width="2.88"
                d="M28 20v5.333A2.668 2.668 0 0 1 25.333 28H6.666a2.668 2.668 0 0 1-2.667-2.667V20M22.666 10.667 15.999 4l-6.667 6.667M16 4v16" />
        </symbol>
        <symbol id="edit" viewBox="0 0 32 32">
            <path stroke-linecap="round" stroke-linejoin="round" stroke-width="3.6"
                d="M22.666 4a3.766 3.766 0 0 1 4.109-.817 3.781 3.781 0 0 1 2.041 2.04 3.764 3.764 0 0 1 0 2.886 3.756 3.756 0 0 1-.817 1.223l-18 18-7.333 2 2-7.333 18-18z" />
        </symbol>
        <symbol id="eye" viewBox="0 0 32 32">
            <path stroke-linecap="round" stroke-linejoin="round" stroke-width="2.88"
                d="M1.333 16S6.666 5.333 16 5.333 30.667 16 30.667 16 25.334 26.667 16 26.667 1.333 16 1.333 16z" />
            <path stroke-linecap="round" stroke-linejoin="round" stroke-width="2.88"
                d="M16 20a4 4 0 1 0 0-8 4 4 0 0 0 0 8z" />
        </symbol>
        <symbol id="eye_off" viewBox="0 0 32 32">
            <path stroke-linecap="round" stroke-linejoin="round" stroke-width="2.88"
                d="M23.92 23.92A13.43 13.43 0 0 1 16 26.667C6.667 26.667 1.333 16 1.333 16A24.605 24.605 0 0 1 8.08 8.08m5.12-2.427a12.161 12.161 0 0 1 2.8-.32C25.333 5.333 30.667 16 30.667 16a24.646 24.646 0 0 1-2.88 4.253m-8.961-1.426a4.01 4.01 0 0 1-2.855 1.273 3.978 3.978 0 0 1-1.569-.291 3.984 3.984 0 0 1-2.21-2.21 3.995 3.995 0 0 1 .983-4.424M1.333 1.333l29.333 29.333" />
        </symbol>
        <symbol id="log_out" viewBox="0 0 32 32">
            <path stroke-linecap="round" stroke-linejoin="round" stroke-width="3"
                d="M12 28H6.667A2.668 2.668 0 0 1 4 25.333V6.666a2.668 2.668 0 0 1 2.667-2.667H12M21.334 22.667 28.001 16l-6.667-6.667M28 16H12" />
        </symbol>
        <symbol id="pie_chart" viewBox="0 0 32 32">
            <path fill="none" stroke="#323f47" stroke-linecap="round" stroke-linejoin="round" stroke-width="2.667"
                d="M22.933 18.667c.369 0 .554 0 .704.082a.713.713 0 0 1 .293.324c.067.157.05.324.016.659a10.665 10.665 0 0 1-12.694 9.397c-2.069-.412-3.97-1.428-5.462-2.919s-2.508-3.392-2.919-5.461a10.666 10.666 0 0 1 9.397-12.694c.334-.034.502-.05.659.016.13.055.257.17.324.293.082.15.082.334.082.704v8.533c0 .373 0 .56.073.703a.67.67 0 0 0 .291.291c.143.073.329.073.703.073h8.533z"
                style="stroke:var(--color1, #323f47)" />
            <path fill="none" stroke="#9be1a0" stroke-linecap="round" stroke-linejoin="round" stroke-width="2.667"
                d="M18.667 3.733c0-.369 0-.554.082-.704a.713.713 0 0 1 .324-.293c.157-.067.324-.05.659-.016a10.67 10.67 0 0 1 9.549 9.549c.033.334.05.502-.016.659a.704.704 0 0 1-.293.324c-.15.082-.334.082-.704.082h-8.533c-.373 0-.56 0-.703-.073a.67.67 0 0 1-.291-.291c-.073-.143-.073-.329-.073-.703V3.734z"
                style="stroke:var(--color2, #9be1a0)" />
        </symbol>
        <symbol id="settings" viewBox="0 0 32 32">
            <path stroke-linecap="round" stroke-linejoin="round" stroke-width="3"
                d="M16 20a4 4 0 1 0 0-8 4 4 0 0 0 0 8z" />
            <path stroke-linecap="round" stroke-linejoin="round" stroke-width="3"
                d="M25.867 20a2.205 2.205 0 0 0 .44 2.427l.08.08a2.672 2.672 0 0 1 .782 1.886 2.672 2.672 0 0 1-1.648 2.465 2.672 2.672 0 0 1-2.907-.579l-.08-.08a2.197 2.197 0 0 0-2.427-.44 2.2 2.2 0 0 0-1.334 2.013v.227a2.668 2.668 0 0 1-5.334 0v-.12a2.196 2.196 0 0 0-1.44-2.013 2.205 2.205 0 0 0-2.427.44l-.08.08a2.672 2.672 0 0 1-1.886.782 2.672 2.672 0 0 1-2.465-1.648 2.672 2.672 0 0 1 .579-2.907l.08-.08a2.197 2.197 0 0 0 .44-2.427 2.2 2.2 0 0 0-2.013-1.334H4a2.668 2.668 0 0 1 0-5.334h.12a2.196 2.196 0 0 0 2.013-1.44 2.2 2.2 0 0 0-.44-2.427l-.08-.08a2.666 2.666 0 0 1 .865-4.352 2.668 2.668 0 0 1 2.908.579l.08.08a2.197 2.197 0 0 0 2.427.44H12a2.2 2.2 0 0 0 1.334-2.013v-.227a2.668 2.668 0 0 1 5.334 0v.12a2.203 2.203 0 0 0 1.334 2.013 2.208 2.208 0 0 0 2.427-.44l.08-.08a2.672 2.672 0 0 1 1.886-.782 2.672 2.672 0 0 1 2.465 1.647 2.668 2.668 0 0 1-.579 2.907l-.08.08a2.197 2.197 0 0 0-.44 2.427v.107a2.2 2.2 0 0 0 2.013 1.334h.227a2.668 2.668 0 0 1 0 5.334h-.12a2.203 2.203 0 0 0-2.013 1.334z" />
        </symbol>       
        <symbol id="close" xmlns="http://www.w3.org/2000/svg" viewBox="0 0 50 50">
            <path stroke-linecap="round" stroke-linejoin="round" stroke-width="3" d="M 9.15625 6.3125 L 6.3125 9.15625 L 22.15625 25 L 6.21875 40.96875 L 9.03125 43.78125 L 25 27.84375 L 40.9375 43.78125 L 43.78125 40.9375 L 27.84375 25 L 43.6875 9.15625 L 40.84375 6.3125 L 25 22.15625 Z"></path>
        </symbol>


<symbol id="Layer_1" style="enable-background:new 0 0 30 30;" version="1.1" viewBox="0 0 30 30" xml:space="preserve" xmlns="http://www.w3.org/2000/svg" xmlns:xlink="http://www.w3.org/1999/xlink">
<path d="M15,3C8.373,3,3,8.373,3,15c0,6.627,5.373,12,12,12s12-5.373,12-12C27,8.373,21.627,3,15,3z M16.212,8l-0.2,9h-2.024l-0.2-9  H16.212z M15.003,22.189c-0.828,0-1.323-0.441-1.323-1.182c0-0.755,0.494-1.196,1.323-1.196c0.822,0,1.316,0.441,1.316,1.196  C16.319,21.748,15.825,22.189,15.003,22.189z"/>
</symbol>


<symbol id="attention" xmlns="http://www.w3.org/2000/svg" xmlns:xlink="http://www.w3.org/1999/xlink" viewBox="0 0 3750 3750">

<path fill-rule="nonzero" fill="#9be1a0" fill-opacity="1" d="M 1875 585.78125 C 1766.578125 585.78125 1662.609375 628.851562 1585.941406 705.519531 C 1509.28125 782.179688 1466.210938 886.160156 1466.210938 994.570312 C 1466.359375 1041.140625 1474.449219 1087.328125 1490.160156 1131.171875 L 1706.378906 2364.300781 C 1706.378906 2457.429688 1781.871094 2532.921875 1875 2532.921875 C 1968.128906 2532.921875 2043.628906 2457.429688 2043.628906 2364.300781 L 2259.910156 1130.789062 C 2275.550781 1087.070312 2283.628906 1041 2283.789062 994.570312 C 2283.789062 886.160156 2240.71875 782.179688 2164.058594 705.519531 C 2087.390625 628.851562 1983.421875 585.78125 1875 585.78125 Z M 1875 2669.648438 C 1809.410156 2669.648438 1746.519531 2695.699219 1700.140625 2742.070312 C 1653.769531 2788.449219 1627.710938 2851.347656 1627.710938 2916.933594 C 1627.710938 3053.503906 1738.429688 3164.214844 1875 3164.214844 C 2011.570312 3164.214844 2122.289062 3053.503906 2122.289062 2916.933594 C 2122.289062 2851.347656 2096.230469 2788.449219 2049.859375 2742.070312 C 2003.480469 2695.699219 1940.589844 2669.648438 1875 2669.648438 Z M 1875 2669.648438 "/>
</symbol>

    </defs>
</svg>